<svg width="48" height="48" viewBox="0 0 128 128" fill="none" xmlns="http://www.w3.org/2000/svg">
  <rect width="128" height="128" rx="32" fill="#9147FF" />
  <path d="M69.8059 51.0864C69.8927 50.97 70.0335 50.7717 70.2204 50.5083L70.2213 50.5071C70.8132 49.6733 71.869 48.1859 73.1566 46.5596C76.1755 42.7467 80.4686 38.1705 83.0438 39.4647C87.0655 41.4859 85.2222 44.0123 84.3844 45.3598C83.8072 46.288 80.2878 51.2925 76.2913 54.537C74.4862 56.0023 72.5839 57.1086 70.8113 57.3182C65.1139 57.992 68.8005 52.4338 69.8059 51.0864Z" fill="white" />
  <path d="M59.0373 51.0864C58.9503 50.9698 58.8092 50.7711 58.6219 50.5071C58.03 49.6733 56.9742 48.1859 55.6866 46.5596C52.6677 42.7467 48.3746 38.1705 45.7993 39.4647C41.7777 41.4859 43.6209 44.0123 44.4588 45.3598C45.0359 46.288 48.5553 51.2925 52.5519 54.537C54.3569 56.0023 56.2593 57.1086 58.0319 57.3182C63.7292 57.992 60.0427 52.4338 59.0373 51.0864Z" fill="white" />
  <path d="M64.4904 68.9733H64.3527V77.3787H64.4904V68.9733Z" fill="white" />
  <path fill-rule="evenodd" clip-rule="evenodd" d="M64.3527 79.4821V81.8265L63.3366 81.674C63.0484 81.6308 62.7628 81.5845 62.4796 81.5352V79.8442L62.6701 79.4821H64.3527Z" fill="white" />
  <path fill-rule="evenodd" clip-rule="evenodd" d="M66.3636 81.5352C66.0804 81.5845 65.7947 81.6308 65.5066 81.674L64.4904 81.8265V79.4821H66.173L66.3636 79.8442V81.5352Z" fill="white" />
  <path d="M62.4796 79.4821V79.8442L62.6701 79.4821H62.4796Z" fill="white" />
  <path d="M66.3636 79.8442V79.4821H66.173L66.3636 79.8442Z" fill="white" />
  <path fill-rule="evenodd" clip-rule="evenodd" d="M64.4904 81.8265L64.4216 81.8368L64.3527 81.8265V79.4821H64.4904V81.8265Z" fill="white" />
  <path d="M92.025 70.0786C92.025 71.5957 93.6652 72.4461 94.6364 71.2832C96.2538 69.3465 97.2275 66.8504 97.2275 64.1261C97.2275 61.4018 96.2538 58.9057 94.6364 56.969C93.6652 55.8061 92.025 56.6565 92.025 58.1737C92.025 58.6431 92.2035 59.0908 92.4795 59.4699C93.43 60.7758 93.991 62.3853 93.991 64.1261C93.991 65.867 93.43 67.4764 92.4795 68.7823C92.2035 69.1614 92.025 69.6091 92.025 70.0786Z" fill="white" />
  <path d="M95.4816 79.3578C95.4816 80.7266 96.9712 81.5314 98.0076 80.641C102.585 76.7085 105.485 70.8682 105.485 64.3483C105.485 57.8283 102.585 51.9881 98.0076 48.0555C96.9712 47.1652 95.4816 47.9699 95.4816 49.3388C95.4816 49.8652 95.7226 50.3597 96.1158 50.7082C99.8771 54.042 102.249 58.9172 102.249 64.3483C102.249 69.7793 99.8771 74.6546 96.1158 77.9883C95.7226 78.3369 95.4816 78.8313 95.4816 79.3578Z" fill="white" />
  <path d="M36.8182 69.7562C36.8182 71.2734 35.178 72.1237 34.2068 70.9608C32.5894 69.0241 31.6156 66.528 31.6156 63.8037C31.6156 61.0795 32.5894 58.5834 34.2068 56.6467C35.178 55.4838 36.8182 56.3341 36.8182 57.8513C36.8182 58.3207 36.6397 58.7684 36.3637 59.1476C35.4132 60.4535 34.8522 62.0629 34.8522 63.8037C34.8522 65.5446 35.4132 67.154 36.3637 68.4599C36.6397 68.8391 36.8182 69.2868 36.8182 69.7562Z" fill="white" />
  <path d="M33.3616 79.0354C33.3616 80.4043 31.8719 81.209 30.8356 80.3186C26.2583 76.3861 23.3577 70.5459 23.3577 64.0259C23.3577 57.506 26.2583 51.6657 30.8356 47.7332C31.8719 46.8428 33.3616 47.6475 33.3616 49.0164C33.3616 49.5429 33.1206 50.0373 32.7273 50.3859C28.9661 53.7196 26.5942 58.5949 26.5942 64.0259C26.5942 69.457 28.9661 74.3322 32.7273 77.666C33.1206 78.0145 33.3616 78.5089 33.3616 79.0354Z" fill="white" />
  <path fill-rule="evenodd" clip-rule="evenodd" d="M64.4904 66.8948H65.6075C65.6126 66.896 65.6235 66.8983 65.6402 66.9015C65.6439 66.9022 65.6478 66.9029 65.6521 66.9037C65.6999 66.9124 65.7832 66.9253 65.8998 66.9357C65.9798 66.9428 66.0758 66.9487 66.1868 66.9512C66.2559 66.8463 66.2946 66.7874 66.3636 66.6825L68.4608 63.4947L71.1049 65.3859C71.1375 65.3663 71.1702 65.3465 71.203 65.3264C72.5557 64.4988 73.5132 63.6973 74.2763 63.0036L74.8718 60.5104L76.4054 60.9367C76.4471 58.7264 76.4155 56.623 76.3061 54.7777C76.3013 54.6967 76.2963 54.6165 76.2913 54.537C74.4862 56.0023 72.5839 57.1086 70.8113 57.3182C65.1139 57.992 68.8005 52.4338 69.8059 51.0864C69.8927 50.97 70.0335 50.7717 70.2204 50.5083L70.2213 50.5071C70.8132 49.6733 71.869 48.1859 73.1566 46.5596C73.1273 46.5358 73.0977 46.5119 73.0678 46.488C71.8871 45.5429 70.4587 44.6666 69.043 43.9097C68.8328 43.7973 68.5253 43.631 68.1651 43.4362L68.1622 43.4346C66.9779 42.7941 65.2261 41.8467 64.4904 41.4947V66.8948ZM71.5582 63.1579C72.7613 63.1579 73.7366 62.0267 73.7366 60.6314C73.7366 59.2361 72.7613 58.105 71.5582 58.105C70.3551 58.105 69.3798 59.2361 69.3798 60.6314C69.3798 62.0267 70.3551 63.1579 71.5582 63.1579Z" fill="white" />
  <path fill-rule="evenodd" clip-rule="evenodd" d="M64.3527 66.8948V41.4947C63.6171 41.8466 61.8653 42.7941 60.6809 43.4346C60.3195 43.6301 60.0109 43.797 59.8002 43.9097C58.3844 44.6666 56.956 45.5429 55.7754 46.488C55.7455 46.5119 55.7159 46.5358 55.6866 46.5596C56.9742 48.1859 58.03 49.6733 58.6219 50.5071C58.8092 50.7711 58.9503 50.9698 59.0373 51.0864C60.0427 52.4338 63.7292 57.992 58.0319 57.3182C56.2593 57.1086 54.3569 56.0023 52.5519 54.537C52.5468 54.6165 52.5419 54.6967 52.5371 54.7777C52.4277 56.623 52.3961 58.7264 52.4377 60.9367L53.9713 60.5104L54.5668 63.0036C55.3299 63.6973 56.2874 64.4988 57.6401 65.3264C57.6552 65.3356 57.6703 65.3448 57.6854 65.3539C57.703 65.3647 57.7207 65.3753 57.7383 65.3859L60.3824 63.4947L62.4796 66.6825L62.6563 66.9512C62.7674 66.9487 62.8633 66.9428 62.9434 66.9357C63.06 66.9253 63.1433 66.9124 63.1911 66.9037C63.2146 66.8994 63.2295 66.8962 63.2356 66.8948H64.3527ZM57.2849 63.1579C56.0818 63.1579 55.1065 62.0267 55.1065 60.6314C55.1065 59.2361 56.0818 58.105 57.2849 58.105C58.488 58.105 59.4633 59.2361 59.4633 60.6314C59.4633 62.0267 58.488 63.1579 57.2849 63.1579Z" fill="white" />
  <path fill-rule="evenodd" clip-rule="evenodd" d="M64.4904 41.4305V39.5777C64.4904 39.5777 63.6889 39.8673 62.4796 40.3878C59.2654 41.7714 53.1704 44.7869 51.5876 48.3361C50.6838 50.3626 50.328 55.2886 50.4246 60.8282C50.365 60.83 50.3003 60.8315 50.2299 60.833L50.1195 60.8352C49.8984 60.8395 49.6406 60.8445 49.3712 60.8584C48.7378 60.8912 47.9709 60.9755 47.1991 61.2484C46.4155 61.5255 45.6301 61.996 44.972 62.7862C44.3173 63.5723 43.8321 64.6225 43.5632 65.9943C43.4644 66.4983 43.4385 67.0144 43.4777 67.5364C43.5581 68.6053 43.9121 69.6986 44.4745 70.7612C45.2954 72.3124 46.5889 73.857 48.2651 75.2787C48.3035 75.3112 48.3421 75.3437 48.3808 75.3761C49.057 75.9414 49.7974 76.4896 50.5981 77.0129C51.1026 77.3426 51.6311 77.6625 52.1826 77.9705C52.3173 78.5643 52.4589 79.1217 52.6072 79.6364C52.8133 80.3515 53.0322 80.9839 53.2633 81.5167C55.2265 86.0436 59.8161 87.7707 62.4796 88.4071C63.6809 88.694 64.4904 88.7591 64.4904 88.7591V86.9064L64.4216 86.8864L64.3527 86.8664L62.4796 86.3224C61.9356 86.1755 61.3273 85.9811 60.6946 85.7257C58.5 84.8396 56.237 83.3158 55.1066 80.709C54.9213 80.2818 54.7394 79.7617 54.5631 79.1589C56.5859 80.0577 58.8461 80.7986 61.3101 81.3117L61.6149 81.4874L61.669 81.3845C61.9369 81.4375 62.2071 81.4877 62.4796 81.5352V79.8442V79.4821C60.4348 79.1047 58.5409 78.5634 56.8166 77.9046L56.7394 77.8751C55.7532 77.4952 54.8229 77.0768 53.9519 76.6287C53.135 76.2084 52.3704 75.762 51.6609 75.2966C51.0989 74.9279 50.5715 74.5474 50.0802 74.1585C49.9394 74.047 49.8015 73.9349 49.6667 73.8221L49.6244 73.7867C48.0662 72.4765 46.9344 71.1056 46.2497 69.812C45.6176 68.6176 45.3909 67.5391 45.4962 66.6412C45.5064 66.5541 45.5197 66.4686 45.5361 66.3849C45.7537 65.2747 46.1192 64.5576 46.5139 64.0836C46.9053 63.6136 47.3682 63.3312 47.8664 63.155C48.204 63.0356 48.5584 62.9649 48.919 62.9225C49.1031 62.9008 49.2888 62.8865 49.4747 62.8769C49.7091 62.8648 49.9311 62.8604 50.1529 62.8561L50.2713 62.8537C50.3391 62.8523 50.4087 62.8508 50.4789 62.8487C50.6642 62.8433 50.854 62.8343 51.0283 62.8148C51.1204 62.8045 51.2313 62.8144 51.4509 62.9512C51.7043 63.1089 52.0002 63.3701 52.4535 63.7931L52.5331 63.8676L52.6139 63.9432C53.243 64.5322 54.0512 65.2889 55.1726 66.104C55.5673 66.3909 56.0007 66.685 56.4789 66.9815C56.5172 67.0053 56.5557 67.0291 56.5946 67.0528C58.6452 68.3074 60.3767 68.7772 61.6334 68.9202C61.9474 68.9559 62.2303 68.9711 62.4796 68.9733H62.986H64.4904L64.3527 66.8948H63.2356C63.2295 66.8962 63.2146 66.8994 63.1911 66.9037C63.1433 66.9124 63.06 66.9253 62.9434 66.9357C62.8633 66.9428 62.7674 66.9487 62.6563 66.9512C62.6011 66.9524 62.5422 66.9528 62.4796 66.952C62.3018 66.9498 62.0944 66.9386 61.8596 66.9118C60.9135 66.8042 59.4964 66.4433 57.7383 65.3859L57.6854 65.3539L57.6401 65.3264C56.2874 64.4988 55.3299 63.6973 54.5668 63.0036C54.3567 62.8126 54.1612 62.6297 53.9764 62.4567L53.8838 62.3701L53.8217 62.3121C53.3952 61.914 52.958 61.512 52.5097 61.2329C52.4978 61.2255 52.4859 61.2182 52.4739 61.2109C52.4636 61.2046 52.4532 61.1984 52.4428 61.1922C52.441 61.1069 52.4393 61.0217 52.4377 60.9367C52.3961 58.7264 52.4277 56.623 52.5371 54.7777C52.5419 54.6967 52.5468 54.6165 52.5519 54.537C54.3569 56.0023 56.2593 57.1086 58.0319 57.3182C63.7292 57.992 60.0427 52.4338 59.0373 51.0864C58.9503 50.9698 58.8092 50.7711 58.6219 50.5071C58.03 49.6733 56.9742 48.1859 55.6866 46.5596C55.7159 46.5358 55.7455 46.5119 55.7754 46.488C56.956 45.5429 58.3844 44.6666 59.8002 43.9097C60.0109 43.797 60.3195 43.6301 60.6809 43.4346C61.8653 42.7941 63.6171 41.8466 64.3527 41.4947C64.3768 41.4832 64.3998 41.4723 64.4216 41.4621C64.446 41.4507 64.4689 41.4402 64.4904 41.4305Z" fill="white" />
  <path fill-rule="evenodd" clip-rule="evenodd" d="M64.3527 41.4305V39.5777C64.3527 39.5777 65.1543 39.8673 66.3636 40.3878C69.5778 41.7714 75.6727 44.7869 77.2556 48.3361C78.1594 50.3626 78.5151 55.2886 78.4186 60.8282C78.4782 60.83 78.5429 60.8315 78.6132 60.833L78.7236 60.8352C78.9448 60.8395 79.2026 60.8445 79.4719 60.8584C80.1053 60.8912 80.8722 60.9755 81.6441 61.2484C82.4277 61.5255 83.213 61.996 83.8711 62.7862C84.5259 63.5723 85.0111 64.6225 85.2799 65.9943C85.3787 66.4983 85.4047 67.0144 85.3654 67.5364C85.285 68.6053 84.9311 69.6986 84.3687 70.7612C83.5478 72.3124 82.2543 73.857 80.578 75.2787L80.5252 75.3233C80.5043 75.3409 80.4833 75.3585 80.4623 75.3761C79.7861 75.9414 79.0458 76.4896 78.2451 77.0129C77.7406 77.3426 77.2121 77.6625 76.6606 77.9705C76.5259 78.5643 76.3842 79.1217 76.2359 79.6364C76.0298 80.3515 75.8109 80.9839 75.5799 81.5167C73.6167 86.0436 69.0271 87.7707 66.3636 88.4071C65.1623 88.694 64.3527 88.7591 64.3527 88.7591V86.9064L64.4216 86.8864L64.4904 86.8664L66.3636 86.3224C66.9076 86.1755 67.5159 85.9811 68.1485 85.7257C70.3432 84.8396 72.6061 83.3158 73.7366 80.709C73.9218 80.2818 74.1038 79.7617 74.2801 79.1589C72.2573 80.0577 69.9971 80.7986 67.5331 81.3117L67.2283 81.4874L67.1742 81.3845C66.9063 81.4375 66.6361 81.4877 66.3636 81.5352V79.8442V79.4821C68.4083 79.1047 70.3022 78.5634 72.0266 77.9046L72.1037 77.8751C73.09 77.4952 74.0203 77.0768 74.8913 76.6287C75.7081 76.2084 76.4728 75.762 77.1822 75.2966C77.7443 74.9279 78.2717 74.5474 78.763 74.1585C78.9038 74.047 79.0417 73.9349 79.1765 73.8221L79.2188 73.7867C80.777 72.4765 81.9088 71.1056 82.5934 69.812C83.2255 68.6176 83.4522 67.5391 83.347 66.6412C83.3368 66.5541 83.3234 66.4686 83.307 66.3849C83.0894 65.2747 82.724 64.5576 82.3293 64.0836C81.9379 63.6136 81.4749 63.3312 80.9767 63.155C80.6391 63.0356 80.2847 62.9649 79.9242 62.9225C79.7401 62.9008 79.5544 62.8865 79.3685 62.8769C79.1341 62.8648 78.912 62.8604 78.6902 62.8561L78.5719 62.8537C78.5041 62.8523 78.4345 62.8508 78.3643 62.8487C78.179 62.8433 77.9892 62.8343 77.8148 62.8148C77.7228 62.8045 77.6119 62.8144 77.3923 62.9512C77.1388 63.1089 76.8429 63.3701 76.3897 63.7931L76.31 63.8676L76.2293 63.9432C75.6002 64.5322 74.792 65.2889 73.6705 66.104C73.2759 66.3909 72.8424 66.685 72.3643 66.9815L72.3027 67.0196L72.2486 67.0528C70.198 68.3074 68.4665 68.7772 67.2098 68.9202C66.8958 68.9559 66.6129 68.9711 66.3636 68.9733H65.8572H64.3527V66.8948H64.4904H65.6075C65.6126 66.896 65.6235 66.8983 65.6402 66.9015L65.6521 66.9037C65.6999 66.9124 65.7832 66.9253 65.8998 66.9357C65.9798 66.9428 66.0758 66.9487 66.1868 66.9512C66.242 66.9524 66.301 66.9528 66.3636 66.952C66.5414 66.9498 66.7487 66.9386 66.9836 66.9118C67.9296 66.8042 69.3468 66.4433 71.1049 65.3859C71.1375 65.3663 71.1702 65.3465 71.203 65.3264C72.5557 64.4988 73.5132 63.6973 74.2763 63.0036C74.4863 62.8128 74.6815 62.6301 74.8661 62.4573L74.8668 62.4567C74.9191 62.4077 74.9707 62.3594 75.0214 62.3121C75.4479 61.914 75.8852 61.512 76.3334 61.2329L76.3507 61.2222L76.3684 61.2114C76.379 61.2049 76.3897 61.1985 76.4003 61.1922C76.4021 61.1069 76.4038 61.0217 76.4054 60.9367C76.4471 58.7264 76.4155 56.623 76.3061 54.7777C76.3013 54.6967 76.2963 54.6165 76.2913 54.537C74.4862 56.0023 72.5839 57.1086 70.8113 57.3182C65.1139 57.992 68.8005 52.4338 69.8059 51.0864C69.8927 50.97 70.0335 50.7717 70.2204 50.5083L70.2213 50.5071C70.8132 49.6733 71.869 48.1859 73.1566 46.5596C73.1273 46.5358 73.0977 46.5119 73.0678 46.488C71.8871 45.5429 70.4587 44.6666 69.043 43.9097C68.8328 43.7973 68.5253 43.631 68.1651 43.4362L68.1622 43.4346C66.9779 42.7941 65.2261 41.8467 64.4904 41.4947C64.4664 41.4832 64.4434 41.4723 64.4216 41.4621C64.3972 41.4507 64.3742 41.4402 64.3527 41.4305Z" fill="white" />
  <path d="M66.9836 66.9118C67.9296 66.8042 69.3468 66.4433 71.1049 65.3859L68.4608 63.4947L66.3636 66.6825V66.952C66.5414 66.9498 66.7487 66.9386 66.9836 66.9118Z" fill="white" />
  <path d="M57.7383 65.3859C59.4964 66.4433 60.9135 66.8042 61.8596 66.9118C62.0944 66.9386 62.3018 66.9498 62.4796 66.952V66.6825L60.3824 63.4947L57.7383 65.3859Z" fill="white" />
  <path d="M52.5097 61.2329C52.958 61.512 53.3952 61.914 53.8217 62.3121L53.8838 62.3701L53.9764 62.4567C54.1612 62.6297 54.3567 62.8126 54.5668 63.0036L53.9713 60.5104L52.4377 60.9367C52.4393 61.0217 52.441 61.1069 52.4428 61.1922C52.4532 61.1984 52.4636 61.2046 52.4739 61.2109C52.4859 61.2182 52.4978 61.2255 52.5097 61.2329Z" fill="white" />
  <path d="M74.8668 62.4567C74.9191 62.4077 74.9707 62.3594 75.0214 62.3121C75.4479 61.914 75.8852 61.512 76.3334 61.2329L76.3507 61.2222L76.3684 61.2114C76.379 61.2049 76.3897 61.1985 76.4003 61.1922C76.4021 61.1069 76.4038 61.0217 76.4054 60.9367L74.8718 60.5104L74.2763 63.0036C74.4863 62.8128 74.6815 62.6301 74.8661 62.4573L74.8668 62.4567Z" fill="white" />
  <path d="M77.8148 62.8148C77.7228 62.8045 77.6119 62.8144 77.3923 62.9512C77.1388 63.1089 76.8429 63.3701 76.3897 63.7931L76.31 63.8676C76.305 63.9769 76.2998 64.0862 76.2945 64.1957C76.2431 65.2473 76.1768 66.3025 76.0963 67.3465C76.7307 67.4899 77.4288 67.4975 78.1225 67.2206C78.231 65.7666 78.3121 64.2966 78.3643 62.8487C78.179 62.8433 77.9892 62.8343 77.8148 62.8148Z" fill="white" />
  <path d="M78.6902 62.8561L78.5719 62.8537C78.5041 62.8523 78.4345 62.8508 78.3643 62.8487C78.3121 64.2966 78.231 65.7666 78.1225 67.2206C78.4123 67.1049 78.7013 66.9396 78.9846 66.7138C80.4806 65.5216 80.304 63.9711 79.9242 62.9225C79.7401 62.9008 79.5544 62.8865 79.3685 62.8769C79.1341 62.8648 78.912 62.8604 78.6902 62.8561Z" fill="white" />
  <path d="M73.6705 66.104C73.9856 66.3647 74.9339 67.0836 76.0963 67.3465C76.1768 66.3025 76.2431 65.2473 76.2945 64.1957C76.2998 64.0862 76.305 63.9769 76.31 63.8676L76.2293 63.9432C75.6002 64.5322 74.792 65.2889 73.6705 66.104Z" fill="white" />
  <path d="M72.2486 67.0528C70.198 68.3074 68.4665 68.7772 67.2098 68.9202C66.8958 68.9559 66.6129 68.9711 66.3636 68.9733V69.568C67.1988 70.4374 68.5231 71.3049 70.2177 70.7372C72.3286 70.0299 72.4697 68.0852 72.3643 66.9815L72.3027 67.0196L72.2486 67.0528Z" fill="white" />
  <path d="M66.3636 69.568V68.9733H65.8572C65.9979 69.1592 66.1672 69.3636 66.3636 69.568Z" fill="white" />
  <path d="M61.6334 68.9202C60.3767 68.7772 58.6452 68.3074 56.5946 67.0528C56.5557 67.0291 56.5172 67.0053 56.4789 66.9815C56.3734 68.0852 56.5145 70.0299 58.6255 70.7372C60.32 71.3049 61.6443 70.4374 62.4796 69.568V68.9733C62.2303 68.9711 61.9474 68.9559 61.6334 68.9202Z" fill="white" />
  <path d="M62.4796 68.9733V69.568C62.6759 69.3636 62.8452 69.1592 62.986 68.9733H62.4796Z" fill="white" />
  <path d="M52.7468 67.3465C53.9092 67.0836 54.8576 66.3647 55.1726 66.104C54.0512 65.2889 53.243 64.5322 52.6139 63.9432L52.5331 63.8676C52.5382 63.9769 52.5433 64.0862 52.5487 64.1957C52.6 65.2473 52.6663 66.3025 52.7468 67.3465Z" fill="white" />
  <path d="M51.4509 62.9512C51.2313 62.8144 51.1204 62.8045 51.0283 62.8148C50.854 62.8343 50.6642 62.8433 50.4789 62.8487C50.5311 64.2966 50.6122 65.7666 50.7206 67.2206C51.4144 67.4975 52.1125 67.4899 52.7468 67.3465C52.6663 66.3025 52.6 65.2473 52.5487 64.1957C52.5433 64.0862 52.5382 63.9769 52.5331 63.8676L52.4535 63.7931C52.0002 63.3701 51.7043 63.1089 51.4509 62.9512Z" fill="white" />
  <path d="M50.1529 62.8561C49.9311 62.8604 49.7091 62.8648 49.4747 62.8769C49.2888 62.8865 49.1031 62.9008 48.919 62.9225C48.5391 63.9711 48.3626 65.5216 49.8586 66.7138C50.1419 66.9396 50.4309 67.1049 50.7206 67.2206C50.6122 65.7666 50.5311 64.2966 50.4789 62.8487C50.4087 62.8508 50.3391 62.8523 50.2713 62.8537L50.1529 62.8561Z" fill="white" />
  <path d="M49.1674 67.1991C47.9487 66.3648 46.6597 66.3305 45.4962 66.6412C45.3909 67.5391 45.6176 68.6176 46.2497 69.812C46.9344 71.1056 48.0662 72.4765 49.6244 73.7867C49.8499 73.548 50.1469 73.2585 50.5 72.9703C51.0294 71.1652 51.2645 68.6347 49.1674 67.1991Z" fill="white" />
  <path d="M53.4812 73.9432C53.3701 73.2114 53.267 72.4516 53.1723 71.6713C52.4677 71.7738 51.811 72.0718 51.2407 72.4335C51.3674 73.4268 51.5077 74.3862 51.6609 75.2966C52.3704 75.762 53.135 76.2084 53.9519 76.6287C53.7852 75.8063 53.6274 74.9072 53.4812 73.9432Z" fill="white" />
  <path d="M51.6609 75.2966C51.5077 74.3862 51.3674 73.4268 51.2407 72.4335C50.9735 72.6029 50.7253 72.7863 50.5 72.9703C50.3678 73.421 50.2173 73.8265 50.0802 74.1585C50.5715 74.5474 51.0989 74.9279 51.6609 75.2966Z" fill="white" />
  <path d="M55.301 72.0327C54.5699 71.6544 53.849 71.5727 53.1723 71.6713C53.267 72.4516 53.3701 73.2114 53.4812 73.9432C53.6274 74.9072 53.7852 75.8063 53.9519 76.6287C54.8229 77.0768 55.7532 77.4952 56.7394 77.8751C57.1464 76.4728 57.7432 73.2963 55.301 72.0327Z" fill="white" />
  <path d="M59.9484 74.2234C57.6803 74.554 57.0126 76.7206 56.8166 77.9046C58.5409 78.5634 60.4348 79.1047 62.4796 79.4821V74.9602C61.902 74.4243 61.0863 74.0575 59.9484 74.2234Z" fill="white" />
  <path d="M62.4796 74.9602V79.4821H62.6701L63.777 77.3787C63.777 77.3787 63.4991 75.9061 62.4796 74.9602Z" fill="white" />
  <path d="M64.3527 77.3787H63.777L62.6701 79.4821H64.3527V77.3787Z" fill="white" />
  <path d="M65.0661 77.3787H64.4904V79.4821H66.173L65.0661 77.3787Z" fill="white" />
  <path d="M64.4904 77.3787H64.3527V79.4821H64.4904V77.3787Z" fill="white" />
  <path d="M66.3636 79.4821V74.9602C65.3441 75.9061 65.0661 77.3787 65.0661 77.3787L66.173 79.4821H66.3636Z" fill="white" />
  <path d="M72.0266 77.9046C71.8305 76.7206 71.1628 74.554 68.8948 74.2234C67.7568 74.0575 66.9412 74.4243 66.3636 74.9602V79.4821C68.4083 79.1047 70.3022 78.5634 72.0266 77.9046Z" fill="white" />
  <path d="M75.6709 71.6713C74.9942 71.5727 74.2733 71.6544 73.5422 72.0327C71.1 73.2963 71.6968 76.4728 72.1037 77.8751C73.09 77.4952 74.0203 77.0768 74.8913 76.6287C75.058 75.8063 75.2157 74.9072 75.362 73.9432C75.473 73.2114 75.5761 72.4516 75.6709 71.6713Z" fill="white" />
  <path d="M75.6709 71.6713C75.5761 72.4516 75.473 73.2114 75.362 73.9432C75.2157 74.9072 75.058 75.8063 74.8913 76.6287C75.7081 76.2084 76.4728 75.762 77.1822 75.2966C77.3355 74.3862 77.4758 73.4268 77.6025 72.4335C77.0322 72.0718 76.3755 71.7738 75.6709 71.6713Z" fill="white" />
  <path d="M77.6025 72.4335C77.4758 73.4268 77.3355 74.3862 77.1822 75.2966C77.7443 74.9279 78.2717 74.5474 78.763 74.1585C78.6258 73.8265 78.4753 73.421 78.3431 72.9703C78.1178 72.7863 77.8696 72.6029 77.6025 72.4335Z" fill="white" />
  <path d="M79.2188 73.7867C78.9932 73.548 78.6963 73.2585 78.3431 72.9703C78.4753 73.421 78.6258 73.8265 78.763 74.1585C78.9038 74.047 79.0417 73.9349 79.1765 73.8221L79.2188 73.7867Z" fill="white" />
  <path d="M79.6757 67.1991C77.5787 68.6347 77.8138 71.1652 78.3431 72.9703C78.6963 73.2585 78.9932 73.548 79.2188 73.7867C80.777 72.4765 81.9088 71.1056 82.5934 69.812C83.2255 68.6176 83.4522 67.5391 83.347 66.6412C82.1834 66.3305 80.8945 66.3648 79.6757 67.1991Z" fill="white" />
  <path d="M64.4904 66.8948V41.4947C64.4664 41.4832 64.4434 41.4723 64.4216 41.4621C64.3998 41.4723 64.3768 41.4832 64.3527 41.4947V66.8948H64.4904Z" fill="white" />
  <path d="M66.3636 66.952V66.6825L66.1868 66.9512C66.242 66.9524 66.301 66.9528 66.3636 66.952Z" fill="white" />
  <path d="M62.4796 66.6825V66.952C62.5422 66.9528 62.6011 66.9524 62.6563 66.9512L62.4796 66.6825Z" fill="white" />
  <path d="M50.5 72.9703C50.1469 73.2585 49.8499 73.548 49.6244 73.7867L49.6667 73.8221C49.8015 73.9349 49.9394 74.047 50.0802 74.1585C50.2173 73.8265 50.3678 73.421 50.5 72.9703Z" fill="white" />
  <path d="M60.6946 85.7257C61.3273 85.9811 61.9356 86.1755 62.4796 86.3224V81.5352C62.2071 81.4877 61.9369 81.4375 61.669 81.3845L61.6149 81.4874L61.3101 81.3117C58.8461 80.7986 56.5859 80.0577 54.5631 79.1589C54.7394 79.7617 54.9213 80.2818 55.1066 80.709C56.237 83.3158 58.5 84.8396 60.6946 85.7257Z" fill="white" />
  <path d="M66.3636 86.3224C66.9076 86.1755 67.5159 85.9811 68.1485 85.7257C70.3432 84.8396 72.6061 83.3158 73.7366 80.709C73.9218 80.2818 74.1038 79.7617 74.2801 79.1589C72.2573 80.0577 69.9971 80.7986 67.5331 81.3117L67.2283 81.4874L67.1742 81.3845C66.9063 81.4375 66.6361 81.4877 66.3636 81.5352V86.3224Z" fill="white" />
  <path d="M66.3636 86.3224V81.5352C66.0804 81.5845 65.7947 81.6308 65.5066 81.674L64.4904 81.8265V81.8471V86.8664L66.3636 86.3224Z" fill="white" />
  <path d="M64.3527 86.8664V81.8471V81.8265L63.3366 81.674C63.0484 81.6308 62.7628 81.5845 62.4796 81.5352V86.3224L64.3527 86.8664Z" fill="white" />
  <path d="M64.4904 81.8471L64.4216 81.8368L64.3527 81.8471V86.8664L64.4216 86.8864L64.4904 86.8664V81.8471Z" fill="white" />
  <path d="M69.8059 51.0864C69.8927 50.97 70.0332 50.772 70.2201 50.5087L70.2204 50.5083L70.2213 50.5071C70.8132 49.6733 71.869 48.1859 73.1566 46.5596C76.1755 42.7467 80.4686 38.1705 83.0438 39.4647C87.0655 41.4859 85.2222 44.0123 84.3844 45.3598C83.8072 46.288 80.2878 51.2925 76.2913 54.537C74.4862 56.0023 72.5839 57.1086 70.8113 57.3182C65.1139 57.992 68.8005 52.4338 69.8059 51.0864Z" fill="#270D4D" />
  <path d="M73.7366 60.6314C73.7366 62.0267 72.7613 63.1579 71.5582 63.1579C70.3551 63.1579 69.3798 62.0267 69.3798 60.6314C69.3798 59.2361 70.3551 58.105 71.5582 58.105C72.7613 58.105 73.7366 59.2361 73.7366 60.6314Z" fill="#270D4D" />
  <path d="M59.0373 51.0864C58.9503 50.9698 58.8092 50.7711 58.6219 50.5071C58.03 49.6733 56.9742 48.1859 55.6866 46.5596C52.6677 42.7467 48.3746 38.1705 45.7993 39.4647C41.7777 41.4859 43.6209 44.0123 44.4588 45.3598C45.0359 46.288 48.5553 51.2925 52.5519 54.537C54.3569 56.0023 56.2593 57.1086 58.0319 57.3182C63.7292 57.992 60.0427 52.4338 59.0373 51.0864Z" fill="#270D4D" />
  <path d="M55.1065 60.6314C55.1065 62.0267 56.0818 63.1579 57.2849 63.1579C58.488 63.1579 59.4633 62.0267 59.4633 60.6314C59.4633 59.2361 58.488 58.105 57.2849 58.105C56.0818 58.105 55.1065 59.2361 55.1065 60.6314Z" fill="#270D4D" />
  <path d="M45.5361 66.3849C45.5197 66.4686 45.5064 66.5541 45.4962 66.6412C46.6597 66.3305 47.9487 66.3648 49.1674 67.1991C51.2645 68.6347 51.0294 71.1652 50.5 72.9703C50.7253 72.7863 50.9735 72.6029 51.2407 72.4335C51.0281 70.7676 50.8538 69.0063 50.7206 67.2206C50.4309 67.1049 50.1419 66.9396 49.8586 66.7138C48.3626 65.5216 48.5391 63.9711 48.919 62.9225C48.5584 62.9649 48.204 63.0356 47.8664 63.155C47.3682 63.3312 46.9053 63.6136 46.5139 64.0836C46.1192 64.5576 45.7537 65.2747 45.5361 66.3849Z" fill="#270D4D" />
  <path d="M53.1723 71.6713C53.0034 70.2807 52.8608 68.8249 52.7468 67.3465C52.1125 67.4899 51.4144 67.4975 50.7206 67.2206C50.8538 69.0063 51.0281 70.7676 51.2407 72.4335C51.811 72.0717 52.4677 71.7738 53.1723 71.6713Z" fill="#270D4D" />
  <path d="M56.4789 66.9815C56.0007 66.685 55.5673 66.3909 55.1726 66.104C54.8576 66.3647 53.9092 67.0836 52.7468 67.3465C52.8608 68.8249 53.0034 70.2807 53.1723 71.6713C53.849 71.5727 54.5699 71.6544 55.301 72.0327C57.7432 73.2963 57.1464 76.4728 56.7394 77.8751C56.7651 77.8849 56.7908 77.8948 56.8166 77.9046C57.0126 76.7206 57.6803 74.554 59.9484 74.2234C61.0863 74.0575 61.902 74.4243 62.4796 74.9602V69.568C61.6443 70.4374 60.32 71.3049 58.6255 70.7372C56.5145 70.0299 56.3734 68.0852 56.4789 66.9815Z" fill="#270D4D" />
  <path d="M66.3636 74.9602V69.568C66.1673 69.3636 65.9979 69.1592 65.8572 68.9733H64.4904V77.3787H65.0661C65.0661 77.3787 65.3441 75.9061 66.3636 74.9602Z" fill="#270D4D" />
  <path d="M62.4796 69.568V74.9602C63.4991 75.9061 63.777 77.3787 63.777 77.3787H64.3528V68.9733H62.986C62.8452 69.1592 62.6759 69.3636 62.4796 69.568Z" fill="#270D4D" />
  <path d="M73.6705 66.104C73.2759 66.3909 72.8424 66.685 72.3643 66.9815C72.4697 68.0852 72.3286 70.0299 70.2177 70.7372C68.5231 71.3049 67.1988 70.4374 66.3636 69.568V74.9602C66.9412 74.4243 67.7568 74.0575 68.8948 74.2234C71.1628 74.554 71.8305 76.7206 72.0266 77.9046C72.0523 77.8948 72.078 77.8849 72.1037 77.8751C71.6968 76.4728 71.1 73.2963 73.5422 72.0327C74.2733 71.6544 74.9942 71.5727 75.6709 71.6713C75.8398 70.2807 75.9823 68.8249 76.0963 67.3465C74.9339 67.0836 73.9856 66.3647 73.6705 66.104Z" fill="#270D4D" />
  <path d="M76.0963 67.3465C75.9823 68.8249 75.8398 70.2807 75.6709 71.6713C76.3755 71.7738 77.0322 72.0717 77.6025 72.4335C77.815 70.7676 77.9894 69.0063 78.1225 67.2206C77.4288 67.4975 76.7307 67.4899 76.0963 67.3465Z" fill="#270D4D" />
  <path d="M83.347 66.6412C83.3368 66.5541 83.3234 66.4686 83.307 66.3849C83.0894 65.2747 82.724 64.5576 82.3293 64.0836C81.9379 63.6136 81.4749 63.3312 80.9767 63.155C80.6391 63.0356 80.2847 62.9649 79.9242 62.9225C80.304 63.9711 80.4806 65.5216 78.9846 66.7138C78.7013 66.9396 78.4123 67.1049 78.1225 67.2206C77.9894 69.0063 77.815 70.7676 77.6025 72.4335C77.8696 72.6029 78.1178 72.7863 78.3431 72.9703C77.8138 71.1652 77.5787 68.6347 79.6757 67.1991C80.8945 66.3648 82.1834 66.3305 83.347 66.6412Z" fill="#270D4D" />
  <path d="M64.4904 68.9733H64.3528V77.3787H64.4904V68.9733Z" fill="#270D4D" />
  <path fill-rule="evenodd" clip-rule="evenodd" d="M64.3528 39.5777V41.4305C64.9809 41.714 66.8959 42.7498 68.1622 43.4346C68.5236 43.6301 68.8322 43.797 69.043 43.9097C70.4587 44.6666 71.8871 45.5429 73.0678 46.488C73.0977 46.5119 73.1273 46.5358 73.1566 46.5596C71.869 48.1859 70.8132 49.6733 70.2213 50.5071L70.2204 50.5083L70.2201 50.5087C70.0332 50.772 69.8927 50.97 69.8059 51.0864C68.8005 52.4338 65.1139 57.992 70.8113 57.3182C72.5839 57.1086 74.4862 56.0023 76.2913 54.537C76.2963 54.6165 76.3013 54.6967 76.3061 54.7777C76.4155 56.623 76.4471 58.7264 76.4054 60.9367C76.4038 61.0217 76.4021 61.1069 76.4003 61.1922C76.3897 61.1985 76.379 61.2049 76.3685 61.2114C76.3567 61.2185 76.3451 61.2257 76.3334 61.2329C75.8852 61.512 75.4479 61.914 75.0214 62.3121C74.9707 62.3594 74.9191 62.4077 74.8668 62.4567C74.6819 62.6297 74.4865 62.8126 74.2763 63.0036C73.5132 63.6973 72.5557 64.4988 71.203 65.3264C71.1702 65.3465 71.1375 65.3663 71.1049 65.3859C69.3468 66.4433 67.9296 66.8042 66.9836 66.9118C66.7487 66.9386 66.5414 66.9498 66.3636 66.952C66.301 66.9528 66.242 66.9524 66.1868 66.9512C66.0758 66.9487 65.9798 66.9428 65.8998 66.9357C65.7832 66.9253 65.6999 66.9124 65.6521 66.9037C65.6286 66.8994 65.6137 66.8962 65.6075 66.8948H64.3528V68.9733H65.8572H66.3636C66.6129 68.9711 66.8958 68.9559 67.2098 68.9202C68.4665 68.7772 70.198 68.3074 72.2486 67.0528L72.3027 67.0196C72.3233 67.0069 72.3438 66.9942 72.3643 66.9815C72.8424 66.685 73.2759 66.3909 73.6705 66.104C74.792 65.2889 75.6002 64.5322 76.2293 63.9432L76.31 63.8676L76.3897 63.7931C76.8429 63.3701 77.1388 63.1089 77.3923 62.9511C77.6119 62.8144 77.7228 62.8045 77.8148 62.8148C77.9892 62.8343 78.179 62.8433 78.3643 62.8487C78.4345 62.8508 78.5041 62.8523 78.5719 62.8537L78.6902 62.8561C78.912 62.8604 79.1341 62.8648 79.3685 62.8769C79.5544 62.8865 79.7401 62.9008 79.9242 62.9225C80.2847 62.9649 80.6391 63.0356 80.9767 63.155C81.4749 63.3312 81.9379 63.6136 82.3293 64.0836C82.724 64.5576 83.0894 65.2747 83.307 66.3849C83.3234 66.4686 83.3368 66.5541 83.347 66.6412C83.4523 67.5391 83.2256 68.6176 82.5934 69.812C81.9088 71.1056 80.777 72.4765 79.2188 73.7867L79.1765 73.8221C79.0417 73.9349 78.9038 74.047 78.763 74.1585C78.2717 74.5474 77.7443 74.9279 77.1822 75.2966C76.4728 75.762 75.7081 76.2084 74.8913 76.6287C74.0203 77.0768 73.09 77.4951 72.1037 77.8751C72.078 77.8849 72.0523 77.8948 72.0266 77.9046C70.3022 78.5634 68.4083 79.1047 66.3636 79.4821V79.8442V81.5352C66.6361 81.4877 66.9063 81.4374 67.1742 81.3845L67.2283 81.4874L67.5331 81.3117C69.9971 80.7986 72.2573 80.0577 74.2801 79.1589C74.1038 79.7617 73.9218 80.2818 73.7366 80.709C72.6061 83.3158 70.3432 84.8396 68.1485 85.7257C67.5159 85.9811 66.9076 86.1755 66.3636 86.3224L64.3528 86.9064V88.7591C64.3528 88.7591 65.1623 88.694 66.3636 88.4071C69.0271 87.7707 73.6167 86.0436 75.5799 81.5167C75.8109 80.9839 76.0298 80.3515 76.2359 79.6364C76.3842 79.1218 76.5259 78.5643 76.6606 77.9705C77.2121 77.6625 77.7406 77.3426 78.2451 77.0129C79.0458 76.4896 79.7861 75.9414 80.4623 75.3761C80.5011 75.3437 80.5397 75.3112 80.578 75.2787C82.2543 73.857 83.5478 72.3124 84.3687 70.7612C84.9311 69.6986 85.285 68.6053 85.3654 67.5364C85.4047 67.0144 85.3787 66.4983 85.2799 65.9943C85.0111 64.6225 84.5259 63.5723 83.8711 62.7862C83.213 61.996 82.4277 61.5255 81.6441 61.2484C80.8722 60.9755 80.1053 60.8912 79.472 60.8584C79.2026 60.8445 78.9448 60.8395 78.7236 60.8352L78.6132 60.833C78.5429 60.8315 78.4782 60.83 78.4186 60.8282C78.5152 55.2886 78.1594 50.3626 77.2556 48.3361C75.6727 44.7869 69.5778 41.7714 66.3636 40.3878C65.1543 39.8673 64.3528 39.5777 64.3528 39.5777ZM71.5582 63.1579C72.7613 63.1579 73.7366 62.0267 73.7366 60.6314C73.7366 59.2361 72.7613 58.105 71.5582 58.105C70.3551 58.105 69.3798 59.2361 69.3798 60.6314C69.3798 62.0267 70.3551 63.1579 71.5582 63.1579Z" fill="#270D4D" />
  <path fill-rule="evenodd" clip-rule="evenodd" d="M64.4904 39.5777V41.4305C63.8623 41.714 61.9473 42.7498 60.6809 43.4346C60.3195 43.6301 60.0109 43.797 59.8002 43.9097C58.3844 44.6666 56.956 45.5429 55.7754 46.488C55.7455 46.5119 55.7159 46.5358 55.6866 46.5596C56.9742 48.1859 58.03 49.6733 58.6219 50.5071C58.8092 50.7711 58.9503 50.9698 59.0373 51.0864C60.0427 52.4338 63.7292 57.992 58.0319 57.3182C56.2593 57.1086 54.3569 56.0023 52.5519 54.537C52.5468 54.6165 52.5419 54.6967 52.5371 54.7777C52.4277 56.623 52.3961 58.7264 52.4377 60.9367C52.4393 61.0217 52.441 61.1069 52.4428 61.1922C52.4653 61.2056 52.4876 61.2191 52.5097 61.2329C52.958 61.512 53.3952 61.914 53.8217 62.3121C53.8725 62.3594 53.924 62.4077 53.9764 62.4567C54.1612 62.6297 54.3567 62.8126 54.5668 63.0036C55.3299 63.6973 56.2874 64.4988 57.6401 65.3264C57.673 65.3465 57.7057 65.3663 57.7383 65.3859C59.4964 66.4433 60.9135 66.8042 61.8596 66.9118C62.0945 66.9386 62.3018 66.9498 62.4796 66.952C62.5422 66.9528 62.6011 66.9524 62.6563 66.9512C62.7674 66.9487 62.8633 66.9428 62.9434 66.9357C63.06 66.9253 63.1433 66.9124 63.1911 66.9037C63.2146 66.8994 63.2295 66.8962 63.2356 66.8948H64.3528L64.4904 68.9733H62.986H62.4796C62.2303 68.9711 61.9474 68.9559 61.6334 68.9202C60.3767 68.7772 58.6452 68.3074 56.5946 67.0528C56.5557 67.0291 56.5172 67.0053 56.4789 66.9815C56.0007 66.685 55.5673 66.3909 55.1726 66.104C54.0512 65.2889 53.243 64.5322 52.6139 63.9432L52.5331 63.8676L52.4535 63.7931C52.0002 63.3701 51.7044 63.1089 51.4509 62.9511C51.2313 62.8144 51.1204 62.8045 51.0283 62.8148C50.854 62.8343 50.6642 62.8433 50.4789 62.8487C50.4087 62.8508 50.3391 62.8523 50.2713 62.8537L50.1529 62.8561C49.9311 62.8604 49.7091 62.8648 49.4747 62.8769C49.2888 62.8865 49.1031 62.9008 48.919 62.9225C48.5584 62.9649 48.204 63.0356 47.8664 63.155C47.3682 63.3312 46.9053 63.6136 46.5139 64.0836C46.1192 64.5576 45.7537 65.2747 45.5361 66.3849C45.5197 66.4686 45.5064 66.5541 45.4962 66.6412C45.3909 67.5391 45.6176 68.6176 46.2497 69.812C46.9344 71.1056 48.0662 72.4765 49.6244 73.7867L49.6667 73.8221C49.8015 73.9349 49.9394 74.047 50.0802 74.1585C50.5715 74.5474 51.0989 74.9279 51.6609 75.2966C52.3704 75.762 53.135 76.2084 53.9519 76.6287C54.8229 77.0768 55.7532 77.4952 56.7394 77.8751C56.7651 77.8849 56.7908 77.8948 56.8166 77.9046C58.5409 78.5634 60.4348 79.1047 62.4796 79.4821V79.8442V81.5352C62.2071 81.4877 61.9369 81.4374 61.669 81.3845L61.6149 81.4874L61.3101 81.3117C58.8461 80.7986 56.5859 80.0577 54.5631 79.1589C54.7394 79.7617 54.9213 80.2818 55.1066 80.709C56.237 83.3158 58.5 84.8396 60.6946 85.7257C61.3273 85.9811 61.9356 86.1755 62.4796 86.3224L64.4904 86.9064V88.7591C64.4904 88.7591 63.6809 88.694 62.4796 88.4071C59.8161 87.7707 55.2265 86.0436 53.2633 81.5167C53.0322 80.9839 52.8133 80.3515 52.6072 79.6364C52.4589 79.1218 52.3173 78.5643 52.1826 77.9705C51.6311 77.6625 51.1026 77.3426 50.5981 77.0129C49.7974 76.4896 49.057 75.9414 48.3808 75.3761C48.3421 75.3437 48.3035 75.3112 48.2651 75.2787C46.5889 73.857 45.2954 72.3124 44.4745 70.7612C43.9121 69.6986 43.5581 68.6053 43.4777 67.5364C43.4385 67.0144 43.4644 66.4983 43.5632 65.9943C43.8321 64.6225 44.3173 63.5723 44.972 62.7862C45.6301 61.996 46.4155 61.5255 47.1991 61.2484C47.9709 60.9755 48.7378 60.8912 49.3712 60.8584C49.6406 60.8445 49.8984 60.8395 50.1195 60.8352L50.2299 60.833C50.3003 60.8315 50.365 60.83 50.4246 60.8282C50.328 55.2886 50.6838 50.3626 51.5876 48.3361C53.1704 44.7869 59.2654 41.7714 62.4796 40.3878C63.6889 39.8673 64.4904 39.5777 64.4904 39.5777ZM57.2849 63.1579C56.0818 63.1579 55.1065 62.0267 55.1065 60.6314C55.1065 59.2361 56.0818 58.105 57.2849 58.105C58.488 58.105 59.4633 59.2361 59.4633 60.6314C59.4633 62.0267 58.488 63.1579 57.2849 63.1579Z" fill="#270D4D" />
  <path fill-rule="evenodd" clip-rule="evenodd" d="M64.3528 79.4821V81.8265L63.3366 81.674C63.0484 81.6308 62.7628 81.5845 62.4796 81.5352V79.8442L62.6701 79.4821H64.3528Z" fill="#270D4D" />
  <path fill-rule="evenodd" clip-rule="evenodd" d="M66.3636 81.5352C66.0804 81.5845 65.7947 81.6308 65.5066 81.674L64.4904 81.8265V79.4821H66.173L66.3636 79.8442V81.5352Z" fill="#270D4D" />
  <path d="M62.4796 79.4821V79.8442L62.6701 79.4821H62.4796Z" fill="#270D4D" />
  <path d="M66.3636 79.8442V79.4821H66.173L66.3636 79.8442Z" fill="#270D4D" />
  <path fill-rule="evenodd" clip-rule="evenodd" d="M64.4904 81.8265L64.4216 81.8368L64.3528 81.8265V79.4821H64.4904V81.8265Z" fill="#270D4D" />
  <path d="M92.025 70.0786C92.025 71.5957 93.6652 72.4461 94.6364 71.2832C96.2538 69.3465 97.2275 66.8504 97.2275 64.1261C97.2275 61.4018 96.2538 58.9057 94.6364 56.969C93.6652 55.8061 92.025 56.6565 92.025 58.1737C92.025 58.6431 92.2035 59.0908 92.4795 59.4699C93.43 60.7758 93.991 62.3853 93.991 64.1261C93.991 65.867 93.43 67.4764 92.4795 68.7823C92.2035 69.1614 92.025 69.6091 92.025 70.0786Z" fill="#270D4D" />
  <path d="M95.4816 79.3578C95.4816 80.7267 96.9712 81.5314 98.0076 80.641C102.585 76.7085 105.485 70.8682 105.485 64.3483C105.485 57.8283 102.585 51.9881 98.0076 48.0555C96.9712 47.1652 95.4816 47.9699 95.4816 49.3388C95.4816 49.8652 95.7226 50.3597 96.1158 50.7082C99.8771 54.042 102.249 58.9172 102.249 64.3483C102.249 69.7793 99.8771 74.6546 96.1158 77.9883C95.7226 78.3369 95.4816 78.8313 95.4816 79.3578Z" fill="#270D4D" />
  <path d="M36.8182 69.7562C36.8182 71.2734 35.178 72.1237 34.2068 70.9608C32.5894 69.0241 31.6156 66.528 31.6156 63.8037C31.6156 61.0795 32.5894 58.5834 34.2068 56.6467C35.178 55.4838 36.8182 56.3341 36.8182 57.8513C36.8182 58.3207 36.6397 58.7684 36.3637 59.1476C35.4132 60.4535 34.8522 62.0629 34.8522 63.8037C34.8522 65.5446 35.4132 67.154 36.3637 68.4599C36.6397 68.8391 36.8182 69.2868 36.8182 69.7562Z" fill="#270D4D" />
  <path d="M33.3616 79.0354C33.3616 80.4043 31.8719 81.209 30.8356 80.3186C26.2583 76.3861 23.3577 70.5459 23.3577 64.0259C23.3577 57.506 26.2583 51.6657 30.8356 47.7332C31.8719 46.8428 33.3616 47.6475 33.3616 49.0164C33.3616 49.5429 33.1206 50.0373 32.7273 50.3859C28.9661 53.7196 26.5942 58.5949 26.5942 64.0259C26.5942 69.457 28.9661 74.3322 32.7273 77.666C33.1206 78.0145 33.3616 78.5089 33.3616 79.0354Z" fill="#270D4D" />
</svg>
